<svg width="126" height="79" viewBox="0 0 126 79" fill="none" xmlns="http://www.w3.org/2000/svg">
<rect y="6.00903" width="121.664" height="72.0972" rx="4.50608" transform="rotate(-2.83101 0 6.00903)" fill="url(#paint0_linear_5_608)"/>
<path d="M19.5402 22.2191L19.1614 24.0194L10.5886 24.4433L10.961 22.6433L19.5402 22.2191ZM15.5712 32.2844L10.9411 27.2969L10.8685 25.6983L13.0293 25.5915C13.5109 25.5677 13.9092 25.4583 14.2243 25.2632C14.5393 25.0682 14.7702 24.8133 14.917 24.4984C15.0638 24.1835 15.1296 23.83 15.1145 23.4376C15.0811 22.8497 14.8848 22.3788 14.5255 22.0249C14.1703 21.6665 13.6048 21.5064 12.8292 21.5448L10.451 21.6624L10.8643 19.3926L12.7182 19.3009C13.805 19.2472 14.7188 19.3665 15.4595 19.6588C16.2043 19.9467 16.7727 20.3821 17.1647 20.9651C17.5609 21.5479 17.7817 22.2548 17.8271 23.0856C17.8593 23.8231 17.7675 24.4728 17.5518 25.0346C17.3403 25.5962 16.9858 26.073 16.4882 26.465C15.9949 26.8568 15.3414 27.1626 14.5277 27.3823L14.4273 27.4257L18.5765 32.0205L18.5822 32.1355L15.5712 32.2844ZM19.3924 18.9709L19.0021 20.7974L11.9443 21.1464L12.3346 19.3199L19.3924 18.9709ZM26.5246 31.9222C25.6211 31.9669 24.8074 31.8405 24.0835 31.5431C23.3638 31.2454 22.7829 30.8149 22.3406 30.2514C21.8983 29.688 21.65 29.0295 21.5956 28.276L24.2806 28.1432C24.3355 28.6489 24.569 29.0496 24.9809 29.3454C25.3929 29.6412 25.8716 29.7756 26.4172 29.7486C26.8519 29.7271 27.2307 29.6123 27.5536 29.4041C27.8806 29.1914 28.1294 28.9078 28.2998 28.5533C28.4743 28.1943 28.5504 27.789 28.5281 27.3372C28.5053 26.8769 28.3873 26.4769 28.1739 26.1371C27.9649 25.7971 27.685 25.5375 27.3344 25.3583C26.9837 25.1791 26.5888 25.0983 26.1496 25.1157C25.766 25.1347 25.397 25.232 25.0425 25.4076C24.6923 25.583 24.4238 25.812 24.237 26.0947L21.7539 25.7753L22.0326 18.8403L30.0365 18.4445L30.1484 20.7076L24.4268 20.9905L24.2501 24.2868L24.3269 24.283C24.541 23.9477 24.8751 23.6621 25.3291 23.426C25.7831 23.1899 26.2978 23.0577 26.8731 23.0292C27.6616 22.9902 28.374 23.1408 29.0103 23.4811C29.6466 23.8213 30.1598 24.3065 30.5498 24.9366C30.9396 25.5624 31.1532 26.2952 31.1904 27.135C31.2383 28.017 31.0725 28.8114 30.693 29.518C30.3176 30.2201 29.7709 30.7854 29.053 31.214C28.3391 31.6381 27.4964 31.8742 26.5246 31.9222ZM38.4847 31.4397C37.3849 31.4898 36.4254 31.266 35.6061 30.7682C34.7911 30.2702 34.1453 29.5224 33.6687 28.5249C33.1964 27.5272 32.927 26.3122 32.8605 24.88C32.7899 23.4522 32.9406 22.225 33.3128 21.1983C33.6893 20.1715 34.2588 19.3764 35.0213 18.8132C35.7879 18.2455 36.7188 17.9346 37.8142 17.8805C38.9095 17.8263 39.8644 18.0439 40.679 18.5334C41.4979 19.0227 42.1452 19.7597 42.6212 20.7445C43.0969 21.7249 43.3679 22.9291 43.4343 24.3571C43.5053 25.7934 43.3529 27.0313 42.9771 28.071C42.6055 29.1105 42.0388 29.9182 41.2769 30.4942C40.515 31.0702 39.5842 31.3853 38.4847 31.4397ZM38.3712 29.1447C39.1213 29.1076 39.7014 28.7008 40.1116 27.9243C40.5218 27.1478 40.6875 26.0053 40.6086 24.4968C40.5595 23.5038 40.4163 22.682 40.1791 22.0316C39.9461 21.3809 39.636 20.8985 39.2488 20.5844C38.8658 20.2701 38.425 20.1253 37.9264 20.1499C37.1805 20.1868 36.6023 20.5892 36.1917 21.3572C35.7811 22.1252 35.6104 23.2529 35.6797 24.7406C35.7294 25.7464 35.8711 26.581 36.1047 27.2445C36.3424 27.9035 36.6549 28.3922 37.0424 28.7105C37.4296 29.0246 37.8725 29.1693 38.3712 29.1447ZM50.8788 30.8268C49.7791 30.8769 48.8195 30.6531 48.0003 30.1553C47.1853 29.6573 46.5395 28.9095 46.0629 27.912C45.5906 26.9143 45.3212 25.6993 45.2546 24.2671C45.184 22.8393 45.3348 21.6121 45.707 20.5854C46.0835 19.5586 46.653 18.7635 47.4155 18.2003C48.1821 17.6326 49.113 17.3217 50.2083 17.2676C51.3036 17.2134 52.2586 17.431 53.0732 17.9205C53.892 18.4098 54.5394 19.1468 55.0153 20.1316C55.4911 21.112 55.7621 22.3162 55.8284 23.7442C55.8995 25.1805 55.7471 26.4184 55.3712 27.4581C54.9997 28.4976 54.4329 29.3053 53.6711 29.8813C52.9092 30.4573 51.9784 30.7724 50.8788 30.8268ZM50.7654 28.5318C51.5154 28.4947 52.0956 28.0879 52.5058 27.3114C52.916 26.5349 53.0817 25.3924 53.0028 23.8839C52.9537 22.8909 52.8105 22.0691 52.5733 21.4187C52.3403 20.768 52.0302 20.2856 51.643 19.9715C51.26 19.6572 50.8192 19.5124 50.3206 19.537C49.5747 19.5739 48.9965 19.9763 48.5859 20.7443C48.1753 21.5123 48.0046 22.64 48.0739 24.1277C48.1236 25.1335 48.2653 25.9681 48.4989 26.6316C48.7366 27.2906 49.0491 27.7793 49.4365 28.0976C49.8238 28.4117 50.2667 28.5564 50.7654 28.5318Z" fill="white"/>
<path d="M18.743 38.4003C18.6373 38.0787 18.4912 37.7799 18.3045 37.504C18.1177 37.2248 17.8911 36.9845 17.6248 36.783C17.3615 36.5781 17.0607 36.4232 16.7222 36.3181C16.387 36.213 16.0164 36.1704 15.6105 36.1905C14.9712 36.2221 14.4072 36.4166 13.9186 36.774C13.43 37.1314 13.0542 37.6306 12.7911 38.2717C12.5312 38.9126 12.4231 39.6741 12.4667 40.5563C12.5102 41.4353 12.6944 42.1808 13.0195 42.7928C13.3445 43.4048 13.7711 43.8659 14.2991 44.1762C14.8302 44.4832 15.4265 44.6203 16.0882 44.5876C16.6923 44.5577 17.2195 44.3971 17.6697 44.1057C18.1199 43.8143 18.4621 43.4128 18.6964 42.9014C18.9338 42.3898 19.0324 41.7905 18.992 41.1036L19.2842 41.1805L16.1389 41.336L16.099 40.5305L19.8293 40.346L19.8691 41.1515C19.9105 41.989 19.7769 42.7214 19.4683 43.3487C19.1597 43.9759 18.7179 44.4704 18.143 44.8321C17.5681 45.1937 16.8971 45.3935 16.1299 45.4315C15.2733 45.4738 14.5135 45.3047 13.8506 44.9242C13.1876 44.5404 12.6584 43.9802 12.2631 43.2435C11.8709 42.5035 11.6495 41.6221 11.5989 40.5992C11.5608 39.8289 11.6287 39.1286 11.8026 38.4984C11.9765 37.8682 12.2395 37.3233 12.5917 36.8637C12.9471 36.4039 13.3763 36.0446 13.8794 35.7858C14.3823 35.5238 14.9454 35.3774 15.5687 35.3466C16.1057 35.3201 16.6006 35.3805 17.0533 35.5279C17.5091 35.6752 17.9138 35.8891 18.2674 36.1696C18.6239 36.4468 18.9204 36.7734 19.1569 37.1494C19.3964 37.5221 19.5653 37.9239 19.6635 38.3548L18.743 38.4003ZM22.5841 44.9777L22.2199 37.6132L23.0781 37.5707L23.4423 44.9353L22.5841 44.9777ZM22.5936 36.3258C22.4178 36.3345 22.2646 36.2828 22.1341 36.1707C22.0035 36.0554 21.934 35.913 21.9256 35.7436C21.9172 35.5742 21.9724 35.4273 22.0912 35.3028C22.2099 35.1752 22.3571 35.1071 22.5329 35.0984C22.7087 35.0897 22.862 35.143 22.9926 35.2583C23.1231 35.3704 23.1926 35.5111 23.2009 35.6805C23.2093 35.85 23.1542 35.9985 23.0355 36.1261C22.9167 36.2505 22.7694 36.3171 22.5936 36.3258ZM28.3654 37.3093L28.4022 38.0524L24.7822 38.2314L24.7455 37.4883L28.3654 37.3093ZM26.2412 44.7969L25.8237 36.3535C25.8041 35.9572 25.8786 35.6186 26.0474 35.3379C26.2194 35.0571 26.4505 34.8389 26.7408 34.6836C27.0311 34.5283 27.3425 34.4424 27.6749 34.4259C27.8987 34.4149 28.085 34.4249 28.234 34.456C28.3859 34.4837 28.5059 34.513 28.594 34.5439L28.3816 35.3042C28.3168 35.2882 28.2373 35.2697 28.1434 35.2487C28.0494 35.2277 27.9321 35.2207 27.7915 35.2276C27.4207 35.246 27.1397 35.364 26.9486 35.5817C26.7575 35.7995 26.6716 36.1017 26.6907 36.4885L27.0946 44.7547L26.2412 44.7969ZM32.9695 37.0816L33.0062 37.8248L29.4918 37.9985L29.455 37.2554L32.9695 37.0816ZM30.4657 35.4366L31.324 35.3942L31.6803 42.6006C31.6955 42.9074 31.7602 43.1461 31.8744 43.3167C31.9884 43.4841 32.1319 43.6004 32.305 43.6655C32.4779 43.7275 32.6602 43.7537 32.852 43.7442C32.9639 43.7387 33.0594 43.7276 33.1387 43.7108C33.2178 43.6909 33.2874 43.6714 33.3473 43.6524L33.5677 44.4154C33.4861 44.4514 33.3853 44.4853 33.2651 44.5168C33.145 44.5516 32.9955 44.5734 32.8165 44.5823C32.5033 44.5978 32.1978 44.544 31.9001 44.4209C31.6057 44.2977 31.359 44.1048 31.1602 43.8423C30.9613 43.5798 30.852 43.2471 30.8321 42.8444L30.4657 35.4366ZM41.9537 44.1737C41.2952 44.2063 40.7133 44.07 40.208 43.765C39.7058 43.4598 39.3064 43.0277 39.0096 42.4688C38.7128 41.91 38.5463 41.2645 38.5101 40.5325C38.4736 39.7942 38.5769 39.1306 38.8202 38.5418C39.0666 37.9528 39.4247 37.4833 39.8944 37.1333C40.364 36.78 40.92 36.5875 41.5625 36.5557C42.0548 36.5314 42.5054 36.6052 42.9145 36.7772C43.3233 36.9461 43.6658 37.1967 43.9418 37.5291C44.2208 37.8582 44.4051 38.2496 44.4949 38.7034L43.6318 38.746C43.5218 38.3349 43.2885 37.9908 42.9319 37.7136C42.5784 37.4331 42.1395 37.3058 41.6153 37.3317C41.1454 37.355 40.7362 37.5034 40.3877 37.777C40.039 38.0473 39.7736 38.4145 39.5914 38.8785C39.4123 39.3392 39.3375 39.8668 39.3669 40.4613C39.3965 41.0591 39.5217 41.5832 39.7426 42.0337C39.9634 42.4809 40.2592 42.8252 40.63 43.0664C41.004 43.3075 41.4324 43.416 41.915 43.3922C42.241 43.3761 42.5353 43.3006 42.7978 43.1659C43.0633 43.0278 43.2816 42.8408 43.4526 42.6048C43.6267 42.3687 43.738 42.0924 43.7865 41.776L44.6495 41.7333C44.6076 42.1808 44.4689 42.585 44.2336 42.9459C44.0014 43.3034 43.6904 43.5912 43.3006 43.8091C42.9141 44.0269 42.4651 44.1484 41.9537 44.1737ZM48.6501 43.857C48.2058 43.879 47.7956 43.8127 47.4195 43.6583C47.0432 43.5007 46.7382 43.2626 46.5046 42.9441C46.2708 42.6224 46.1422 42.2251 46.1188 41.752C46.1008 41.3876 46.1543 41.0773 46.2794 40.8212C46.4046 40.5651 46.5894 40.3509 46.834 40.1786C47.0786 40.0063 47.3713 39.8652 47.7119 39.7555C48.0525 39.6457 48.4294 39.555 48.8424 39.4833C49.2522 39.4118 49.5984 39.3498 49.881 39.2973C50.1667 39.2448 50.3827 39.1732 50.5288 39.0827C50.6749 38.9921 50.7434 38.8542 50.7342 38.6688L50.7257 38.4962C50.7009 37.9943 50.5311 37.607 50.2164 37.3342C49.9048 37.058 49.4693 36.9337 48.9099 36.9614C48.3793 36.9876 47.952 37.1257 47.6279 37.3757C47.307 37.6254 47.0872 37.9119 46.9686 38.235L46.1439 37.9826C46.2902 37.5716 46.5044 37.239 46.7866 36.9847C47.0687 36.7272 47.3893 36.5367 47.7485 36.4132C48.1075 36.2865 48.474 36.2139 48.848 36.1954C49.1293 36.1815 49.4236 36.2038 49.7309 36.2623C50.0414 36.3207 50.3322 36.4345 50.6033 36.6037C50.8742 36.7697 51.0992 37.0101 51.2782 37.3249C51.457 37.6365 51.5586 38.0384 51.583 38.5307L51.8302 43.5315L50.9768 43.5737L50.9192 42.4086L50.8664 42.4112C50.7749 42.6336 50.6335 42.8521 50.4422 43.0666C50.251 43.2812 50.0068 43.4615 49.7096 43.6075C49.4124 43.7536 49.0592 43.8367 48.6501 43.857ZM48.7265 43.0698C49.1804 43.0473 49.5686 42.9272 49.8911 42.7094C50.2135 42.4916 50.4561 42.212 50.6186 41.8707C50.7842 41.5261 50.8571 41.1524 50.8371 40.7497L50.7845 39.6852C50.7236 39.7491 50.6192 39.8088 50.4713 39.8641C50.3267 39.9194 50.1578 39.971 49.9647 40.019C49.7747 40.0636 49.5844 40.1035 49.3939 40.1385C49.2033 40.1736 49.0318 40.2045 48.8793 40.2312C48.4663 40.3029 48.1155 40.4004 47.8268 40.5236C47.5381 40.6468 47.3202 40.8082 47.173 41.0077C47.0257 41.2041 46.9594 41.4509 46.9741 41.7482C46.9963 42.1957 47.1732 42.5346 47.505 42.7649C47.8367 42.992 48.2439 43.0936 48.7265 43.0698ZM54.1005 43.4192L53.7363 36.0546L54.5658 36.0136L54.6218 37.1452L54.6841 37.1421C54.8128 36.764 55.0537 36.4525 55.4069 36.2075C55.7631 35.9592 56.173 35.8236 56.6364 35.8007C56.7068 35.7972 56.7851 35.7949 56.8716 35.7939C56.9581 35.7928 57.0301 35.7924 57.0878 35.7928L57.1308 36.6606C57.0921 36.6561 57.0245 36.6499 56.928 36.6418C56.8314 36.6338 56.7272 36.6325 56.6154 36.638C56.2318 36.657 55.8938 36.7554 55.6014 36.9333C55.312 37.1078 55.0881 37.3416 54.9295 37.6346C54.771 37.9276 54.7007 38.2563 54.7188 38.6207L54.954 43.377L54.1005 43.4192ZM61.348 43.2146C60.7439 43.2445 60.207 43.1109 59.7373 42.8137C59.2676 42.5165 58.8907 42.0881 58.6067 41.5286C58.3259 40.9689 58.1667 40.3087 58.1291 39.5479C58.0916 38.7904 58.1851 38.1209 58.4095 37.5394C58.6369 36.9546 58.9713 36.4927 59.4127 36.1536C59.854 35.8114 60.3783 35.6253 60.9857 35.5952C61.4332 35.5731 61.8095 35.6346 62.1147 35.7797C62.4197 35.9216 62.6675 36.1048 62.858 36.3293C63.0485 36.5538 63.1988 36.7739 63.3088 36.9895L63.3855 36.9858L63.1946 33.1261L64.0529 33.0836L64.5385 42.9031L63.7042 42.9443L63.6366 41.5778L63.5359 41.5828C63.4479 41.8115 63.3187 42.0486 63.1482 42.2941C62.9775 42.5365 62.7459 42.745 62.4533 42.9197C62.164 43.0942 61.7955 43.1925 61.348 43.2146ZM61.4101 42.4281C61.8863 42.4046 62.2859 42.2551 62.6087 41.9795C62.9314 41.7008 63.1693 41.3286 63.3225 40.8628C63.4787 40.3937 63.5422 39.8618 63.5128 39.2673C63.4837 38.6792 63.3701 38.1641 63.172 37.7221C62.9737 37.2769 62.7005 36.9347 62.3522 36.6956C62.0038 36.4533 61.5898 36.344 61.1104 36.3677C60.6181 36.392 60.2092 36.5468 59.8837 36.8321C59.5612 37.114 59.3232 37.4862 59.1699 37.9488C59.0197 38.4113 58.9586 38.9254 58.9866 39.4911C59.0149 40.0633 59.1283 40.5752 59.3269 41.0268C59.5255 41.4783 59.7993 41.8317 60.1483 42.0868C60.5004 42.3385 60.921 42.4523 61.4101 42.4281Z" fill="white" fill-opacity="0.6"/>
<path d="M110.818 59.3799L111.599 63.6427L114.778 63.9055L111.635 64.3794L111.278 68.6985L110.497 64.4357L107.323 64.2742L110.46 63.699L110.818 59.3799Z" fill="#FFBF35" fill-opacity="0.4"/>
<path d="M108.78 37.0611L110.073 43.0191L115.629 43.3325L110.124 44.0506L109.425 50.1072L108.131 44.1491L102.583 43.9776L108.08 43.1177L108.78 37.0611Z" fill="#FFBF35" fill-opacity="0.2"/>
<path d="M114.985 20.8741L115.632 23.8531L118.41 24.0098L115.657 24.3689L115.308 27.3971L114.661 24.4181L111.887 24.3324L114.636 23.9024L114.985 20.8741Z" fill="#FFBF35" fill-opacity="0.1"/>
<path d="M63.8966 64.5025L64.5433 67.4816L67.3212 67.6382L64.5688 67.9973L64.2192 71.0256L63.5725 68.0465L60.7982 67.9608L63.547 67.5308L63.8966 64.5025Z" fill="#FFBF35" fill-opacity="0.1"/>
<path d="M99.5019 47.7956L101.136 56.3176L107.889 56.8238L101.209 57.7911L100.423 66.4328L98.7893 57.9107L92.0469 57.6072L98.7165 56.4373L99.5019 47.7956Z" fill="#FFBF35" fill-opacity="0.4"/>
<path d="M73.8707 58.4045L74.8869 63.0858L79.2521 63.332L74.9269 63.8962L74.3776 68.655L73.3613 63.9737L69.0016 63.8389L73.3213 63.1633L73.8707 58.4045Z" fill="#FFBF35" fill-opacity="0.2"/>
<defs>
<linearGradient id="paint0_linear_5_608" x1="-0.18177" y1="42.396" x2="122.041" y2="42.396" gradientUnits="userSpaceOnUse">
<stop stop-color="#196CD9"/>
<stop offset="1" stop-color="#0D3973"/>
</linearGradient>
</defs>
</svg>
