<svg width="14" height="16" viewBox="0 0 14 16" fill="none" xmlns="http://www.w3.org/2000/svg">
<path d="M4.95581 12.375C4.44294 12.375 4.0075 12.196 3.6495 11.838C3.2915 11.48 3.1125 11.0446 3.1125 10.5317V1.84331C3.1125 1.33044 3.2915 0.895 3.6495 0.537C4.0075 0.179 4.44294 0 4.95581 0H11.3942C11.9071 0 12.3425 0.179 12.7005 0.537C13.0585 0.895 13.2375 1.33044 13.2375 1.84331V10.5317C13.2375 11.0446 13.0585 11.48 12.7005 11.838C12.3425 12.196 11.9071 12.375 11.3942 12.375H4.95581ZM4.95581 10.7625H11.3942C11.4519 10.7625 11.5048 10.7384 11.5528 10.6903C11.6009 10.6423 11.625 10.5894 11.625 10.5317V1.84331C11.625 1.78556 11.6009 1.73269 11.5528 1.68469C11.5048 1.63656 11.4519 1.6125 11.3942 1.6125H4.95581C4.89806 1.6125 4.84519 1.63656 4.79719 1.68469C4.74906 1.73269 4.725 1.78556 4.725 1.84331V10.5317C4.725 10.5894 4.74906 10.6423 4.79719 10.6903C4.84519 10.7384 4.89806 10.7625 4.95581 10.7625ZM1.84331 15.4875C1.33044 15.4875 0.895 15.3085 0.537 14.9505C0.179 14.5925 0 14.1571 0 13.6442V3.34331H1.6125V13.6442C1.6125 13.7019 1.63656 13.7548 1.68469 13.8028C1.73269 13.8509 1.78556 13.875 1.84331 13.875H9.89419V15.4875H1.84331Z" fill="#9A5632"/>
</svg>
